# File created by Blade
# Date/Time:  Fri Jan 16 15:45:56 2015
#---------------------------------------------------------
:version 1.10
:name HOM
:units
  mass 1.0
  length 1.000000
  angle deg
:documentation
     Acclaim Skeleton File
:root
   axis xyz
   order TX TY TZ RX RY RZ
   position 0.000000 0.000000 0.000000
   orientation 0 0 0
:bonedata
   begin
      id 1
      name Spine_dum
      direction 0.000000 1.000000 0.000000
      length 7.170412
      axis 0.0 0.0 0.0 xyz
   end
   begin
      id 2
      name LeftUpLeg_dum
      direction 1.000000 0.000000 0.000000
      length 4.318350
      axis 0.0 0.0 0.0 xyz
   end
   begin
      id 3
      name RightUpLeg_dum
      direction -1.000000 0.000000 0.000000
      length 4.318350
      axis 0.0 0.0 0.0 xyz
   end
   begin
      id 4
      name Spine
      direction 0.000000 1.000000 0.000000
      length 0.000000
      axis 0.0 0.0 0.0 xyz
      dof rx ry rz
   end
   begin
      id 5
      name Spine_dum1
      direction 0.000000 1.000000 0.000000
      length 14.276153
      axis 0.0 0.0 0.0 xyz
   end
   begin
      id 6
      name Spine_dum2
      direction 0.000000 1.000000 0.000000
      length 10.718243
      axis 0.0 0.0 0.0 xyz
   end
   begin
      id 7
      name Spine_dum3
      direction 0.000000 1.000000 0.000000
      length 10.718243
      axis 0.0 0.0 0.0 xyz
   end
   begin
      id 8
      name Head
      direction 0.000000 1.000000 0.000000
      length 4.527550
      axis 0.0 0.0 0.0 xyz
      dof rx ry rz
   end
   begin
      id 9
      name LeftShoulder
      direction 1.000000 0.000000 0.000000
      length 7.058872
      axis 0.0 0.0 -90.0 xyz
      dof rx ry rz
   end
   begin
      id 10
      name LeftArm
      direction 1.000000 0.000000 0.000000
      length 10.955525
      axis 0.0 0.0 -90.0 xyz
      dof rx ry rz
   end
   begin
      id 11
      name LeftForeArm
      direction 1.000000 0.000000 0.000000
      length 8.193716
      axis 0.0 0.0 -90.0 xyz
      dof ry rz rx
   end
   begin
      id 12
      name LeftHand
      direction 0.000000 0.000000 0.000000
      length 0.000000
      axis 0.0 0.0 -90.0 xyz
      dof rx ry rz
   end
   begin
      id 13
      name LeftHand_dum1
      direction 0.000000 0.000000 0.000000
      length 0.000000
      axis 0.0 0.0 -90.0 xyz
   end
   begin
      id 14
      name LeftHand_dum2
      direction 1.000000 0.000000 0.000000
      length 3.937000
      axis 0.0 0.0 -90.0 xyz
   end
   begin
      id 15
      name LeftHandThumb1
      direction 0.000000 0.000000 1.000000
      length 3.937000
      axis 0.0 0.0 -90.0 xyz
      dof rx rz ry
   end
   begin
      id 16
      name RightShoulder
      direction -1.000000 0.000000 0.000000
      length 7.058872
      axis 0.0 0.0 90.0 xyz
      dof rx ry rz
   end
   begin
      id 17
      name RightArm
      direction -1.000000 0.000000 0.000000
      length 10.955525
      axis 0.0 0.0 90.0 xyz
      dof rx ry rz
   end
   begin
      id 18
      name RightForeArm
      direction -1.000000 0.000000 0.000000
      length 8.193716
      axis 0.0 0.0 90.0 xyz
      dof ry rz rx
   end
   begin
      id 19
      name RightHand
      direction 0.000000 0.000000 0.000000
      length 0.000000
      axis 0.0 0.0 90.0 xyz
      dof rx ry rz
   end
   begin
      id 20
      name RightHand_dum1
      direction 0.000000 0.000000 0.000000
      length 0.000000
      axis 0.0 0.0 90.0 xyz
   end
   begin
      id 21
      name RightHand_dum2
      direction -1.000000 0.000000 0.000000
      length 3.937000
      axis 0.0 0.0 90.0 xyz
   end
   begin
      id 22
      name RightHandThumb1
      direction 0.000000 0.000000 1.000000
      length 3.937000
      axis 0.0 0.0 90.0 xyz
      dof rx rz ry
   end
   begin
      id 23
      name LeftUpLeg
      direction 0.000000 -1.000000 0.000000
      length 17.323638
      axis 0.0 0.0 0.0 xyz
      dof rx ry rz
   end
   begin
      id 24
      name LeftLeg
      direction 0.000000 -1.000000 0.000000
      length 16.270368
      axis 0.0 0.0 0.0 xyz
      dof rx ry rz
   end
   begin
      id 25
      name LeftFoot
      direction 0.000000 -0.258819 0.965926
      length 4.922846
      axis 15.0 0.0 0.0 xyz
      dof rx ry rz
   end
   begin
      id 26
      name LeftToeBase
      direction 0.000000 0.000000 1.000000
      length 2.952750
      axis 0.0 0.0 0.0 xyz
      dof rx ry rz
   end
   begin
      id 27
      name RightUpLeg
      direction 0.000000 -1.000000 0.000000
      length 17.323638
      axis 0.0 0.0 0.0 xyz
      dof rx ry rz
   end
   begin
      id 28
      name RightLeg
      direction 0.000000 -1.000000 0.000000
      length 16.270368
      axis 0.0 0.0 0.0 xyz
      dof rx ry rz
   end
   begin
      id 29
      name RightFoot
      direction 0.000000 -0.258819 0.965926
      length 4.922846
      axis 15.0 0.0 0.0 xyz
      dof rx ry rz
   end
   begin
      id 30
      name RightToeBase
      direction 0.000000 0.000000 1.000000
      length 2.952750
      axis 0.0 0.0 0.0 xyz
      dof rx ry rz
   end
:hierarchy
   begin
      root Spine_dum LeftUpLeg_dum RightUpLeg_dum
      Spine_dum Spine
      LeftUpLeg_dum LeftUpLeg
      RightUpLeg_dum RightUpLeg
      Spine Spine_dum1 Spine_dum2 Spine_dum3
      Spine_dum1 Head
      Spine_dum2 LeftShoulder
      Spine_dum3 RightShoulder
      LeftShoulder LeftArm
      LeftArm LeftForeArm
      LeftForeArm LeftHand
      LeftHand LeftHand_dum1 LeftHand_dum2
      LeftHand_dum1 LeftHandThumb1
      RightShoulder RightArm
      RightArm RightForeArm
      RightForeArm RightHand
      RightHand RightHand_dum1 RightHand_dum2
      RightHand_dum1 RightHandThumb1
      LeftUpLeg LeftLeg
      LeftLeg LeftFoot
      LeftFoot LeftToeBase
      RightUpLeg RightLeg
      RightLeg RightFoot
      RightFoot RightToeBase
   end

# File created by Blade
# Date/Time:  Fri Jan 16 15:45:48 2015
# Frame Rate: 120.000 fps
#------------------------------------------------------
:FULLY-SPECIFIED
:DEGREES
2066
root -5.301442 35.339592 -10.123981 -2.784361 3.495917 -2.859653
Spine -1.291106 4.007929 0.956665
Head -9.455710 -22.887692 -3.818300
LeftShoulder -15.810666 10.121408 -15.836806
LeftArm 20.848426 19.165077 -65.630475
LeftForeArm 14.126677 -0.000000 13.258046
LeftHand 2.461183 0.000000 -9.386603
LeftHandThumb1 -26.253704 0.000000 33.147579
RightShoulder -6.193869 31.119557 -45.295106
RightArm 47.601179 61.992726 55.864897
RightForeArm 51.329304 -0.000000 14.055240
RightHand -6.181867 -0.000000 -50.318543
RightHandThumb1 -24.326973 -0.000000 -32.862282
LeftUpLeg 10.233735 10.457055 4.322806
LeftLeg -8.417700 -0.000000 0.000000
LeftFoot -12.603174 21.480348 -11.259506
LeftToeBase 21.152720 -0.000000 -0.000000
RightUpLeg 10.754544 -10.693872 -1.314796
RightLeg -4.965776 -0.000000 0.000000
RightFoot -5.964767 -27.473662 7.367404
RightToeBase 12.321437 -0.000000 -0.000000
2067
root -5.299088 35.339158 -10.121772 -2.781257 3.479059 -2.861503
Spine -1.295669 4.050288 0.970097
Head -9.481544 -22.933480 -3.853539
LeftShoulder -15.801119 10.116581 -15.851402
LeftArm 20.833766 19.134674 -65.645143
LeftForeArm 14.173538 0.000000 13.268694
LeftHand 2.442117 -0.000000 -9.365701
LeftHandThumb1 -26.253704 0.000000 33.147579
RightShoulder -6.207195 31.046681 -45.265192
RightArm 47.432011 61.900352 55.678156
RightForeArm 51.259375 -0.000000 14.071622
RightHand -6.148013 -0.000000 -50.232352
RightHandThumb1 -24.326973 -0.000000 -32.862282
LeftUpLeg 10.247471 10.479113 4.324158
LeftLeg -8.437428 -0.000000 0.000000
LeftFoot -12.601525 21.471896 -11.271461
LeftToeBase 21.144566 -0.000000 -0.000000
RightUpLeg 10.754618 -10.667776 -1.314996
RightLeg -4.971267 -0.000000 0.000000
RightFoot -5.966537 -27.482190 7.404407
RightToeBase 12.336138 -0.000000 -0.000000
2068
root -5.296712 35.338469 -10.120418 -2.775169 3.468739 -2.860432
Spine -1.293351 4.063699 0.975115
Head -9.537583 -22.931541 -3.857233
LeftShoulder -15.812701 10.118617 -15.868713
LeftArm 20.840174 19.107628 -65.650815
LeftForeArm 14.202560 -0.000000 13.275869
LeftHand 2.419245 -0.000000 -9.380285
LeftHandThumb1 -26.253704 0.000000 33.147579
RightShoulder -6.200363 30.977737 -45.222860
RightArm 47.227019 61.817633 55.449067
RightForeArm 51.154171 -0.000000 14.119150
RightHand -6.177496 -0.000000 -50.160634
RightHandThumb1 -24.326973 -0.000000 -32.862282
LeftUpLeg 10.252054 10.479511 4.316788
LeftLeg -8.450273 -0.000000 0.000000
LeftFoot -12.603849 21.487616 -11.270793
LeftToeBase 21.143337 -0.000000 -0.000000
RightUpLeg 10.750963 -10.652112 -1.317298
RightLeg -4.975335 -0.000000 0.000000
RightFoot -5.967853 -27.493841 7.384119
RightToeBase 12.379812 -0.000000 -0.000000
2069
root -5.294723 35.337878 -10.118162 -2.771428 3.466737 -2.861015
Spine -1.288647 4.072529 0.982796
Head -9.592650 -22.956630 -3.863685
LeftShoulder -15.819801 10.095777 -15.873195
LeftArm 20.837578 19.138882 -65.634612
LeftForeArm 14.181599 -0.000000 13.269576
LeftHand 2.430131 0.000000 -9.444772
LeftHandThumb1 -26.253704 0.000000 33.147579
RightShoulder -6.211318 30.897671 -45.177763
RightArm 47.079429 61.727231 55.252096
RightForeArm 51.064481 -0.000000 14.142952
RightHand -6.119702 -0.000000 -50.024692
RightHandThumb1 -24.326973 -0.000000 -32.862282
LeftUpLeg 10.257846 10.480920 4.314563
LeftLeg -8.460468 -0.000000 0.000000
LeftFoot -12.610568 21.488512 -11.272422
LeftToeBase 21.161639 -0.000000 -0.000000
RightUpLeg 10.753927 -10.625097 -1.314850
RightLeg -4.980879 -0.000000 0.000000
RightFoot -5.967203 -27.515949 7.403340
RightToeBase 12.279187 -0.000000 -0.000000
2070
root -5.292622 35.337331 -10.115757 -2.768222 3.460843 -2.854804
Spine -1.285331 4.069974 0.979595
Head -9.639081 -22.960401 -3.859272
LeftShoulder -15.832346 10.099127 -15.884645
LeftArm 20.829992 19.103562 -65.649609
LeftForeArm 14.221180 -0.000000 13.280671
LeftHand 2.424104 -0.000000 -9.418516
LeftHandThumb1 -26.253704 0.000000 33.147579
RightShoulder -6.200724 30.824070 -45.116092
RightArm 46.961380 61.659107 55.076638
RightForeArm 50.982042 -0.000000 14.170412
RightHand -6.034798 -0.000000 -49.880795
RightHandThumb1 -24.326973 -0.000000 -32.862282
LeftUpLeg 10.265673 10.502149 4.308343
LeftLeg -8.467703 -0.000000 0.000000
LeftFoot -12.593652 21.474291 -11.254553
LeftToeBase 21.149170 -0.000000 -0.000000
RightUpLeg 10.758673 -10.621777 -1.324961
RightLeg -4.988511 -0.000000 0.000000
RightFoot -5.960027 -27.514137 7.375333
RightToeBase 12.370094 -0.000000 -0.000000
2071
root -5.290300 35.336933 -10.114386 -2.763899 3.459375 -2.849710
Spine -1.276805 4.066933 0.985192
Head -9.700243 -22.969303 -3.866660
LeftShoulder -15.825766 10.082850 -15.891240
LeftArm 20.800001 19.071025 -65.676199
LeftForeArm 14.253634 -0.000000 13.280444
LeftHand 2.427593 -0.000000 -9.377737
LeftHandThumb1 -26.253704 0.000000 33.147579
RightShoulder -6.217533 30.781986 -45.080703
RightArm 46.813152 61.558139 54.880711
RightForeArm 50.885612 -0.000000 14.206616
RightHand -6.003738 -0.000000 -49.779652
RightHandThumb1 -24.326973 -0.000000 -32.862282
LeftUpLeg 10.270808 10.497800 4.299612
LeftLeg -8.483020 -0.000000 0.000000
LeftFoot -12.600028 21.474190 -11.290155
LeftToeBase 21.151004 -0.000000 -0.000000
RightUpLeg 10.753559 -10.618256 -1.333271
RightLeg -4.979239 -0.000000 0.000000
RightFoot -5.971778 -27.499168 7.371358
RightToeBase 12.348974 -0.000000 -0.000000
2072
root -5.288659 35.336587 -10.112175 -2.754910 3.454951 -2.845873
Spine -1.280562 4.051494 0.988256
Head -9.743292 -22.990129 -3.875145
LeftShoulder -15.837042 10.096830 -15.896413
LeftArm 20.811097 19.066360 -65.670607
LeftForeArm 14.236850 -0.000000 13.273442
LeftHand 2.416986 -0.000000 -9.404213
LeftHandThumb1 -26.253704 0.000000 33.147579
RightShoulder -6.207275 30.731591 -45.034667
RightArm 46.748756 61.516532 54.782359
RightForeArm 50.797609 -0.000000 14.241442
RightHand -5.924687 -0.000000 -49.566834
RightHandThumb1 -24.326973 -0.000000 -32.862282
LeftUpLeg 10.272515 10.513373 4.293143
LeftLeg -8.493104 -0.000000 0.000000
LeftFoot -12.599799 21.465693 -11.292100
LeftToeBase 21.143815 -0.000000 -0.000000
RightUpLeg 10.751215 -10.618083 -1.337985
RightLeg -4.989010 -0.000000 0.000000
RightFoot -5.971982 -27.517429 7.353809
RightToeBase 12.440381 -0.000000 -0.000000
2073
root -5.286588 35.336476 -10.110809 -2.748186 3.452042 -2.839589
Spine -1.284639 4.033261 0.981550
Head -9.774749 -22.974469 -3.850656
LeftShoulder -15.811889 10.121232 -15.899532
LeftArm 20.881827 19.074938 -65.619121
LeftForeArm 14.175193 -0.000000 13.128365
LeftHand 2.540901 0.000000 -9.606655
LeftHandThumb1 -26.253704 0.000000 33.147579
RightShoulder -6.176583 30.646766 -44.957677
RightArm 46.781540 61.513634 54.737272
RightForeArm 50.792284 0.000000 14.209044
RightHand -5.736976 -0.000000 -49.278613
RightHandThumb1 -24.326973 -0.000000 -32.862282
LeftUpLeg 10.272270 10.509226 4.282709
LeftLeg -8.497964 -0.000000 0.000000
LeftFoot -12.590446 21.471651 -11.281923
LeftToeBase 21.121560 -0.000000 -0.000000
RightUpLeg 10.748110 -10.601179 -1.345042
RightLeg -4.991192 -0.000000 0.000000
RightFoot -5.975939 -27.531714 7.377314
RightToeBase 12.390829 -0.000000 -0.000000
2074
root -5.284408 35.336231 -10.108406 -2.741532 3.452908 -2.830748
Spine -1.282738 4.009985 0.981255
Head -9.834761 -22.967221 -3.835217
LeftShoulder -15.804921 10.140048 -15.899926
LeftArm 20.890546 19.094901 -65.607073
LeftForeArm 14.125594 -0.000000 13.107824
LeftHand 2.551925 -0.000000 -9.606183
LeftHandThumb1 -26.253704 0.000000 33.147579
RightShoulder -6.184763 30.626419 -44.936628
RightArm 46.877468 61.540790 54.848370
RightForeArm 50.717938 -0.000000 14.245112
RightHand -5.651631 0.000000 -49.095386
RightHandThumb1 -24.326973 -0.000000 -32.862282
LeftUpLeg 10.274771 10.492889 4.266922
LeftLeg -8.500305 -0.000000 0.000000
LeftFoot -12.569101 21.469691 -11.364284
LeftToeBase 20.929470 -0.000000 -0.000000
RightUpLeg 10.752725 -10.597725 -1.355544
RightLeg -5.005955 -0.000000 0.000000
RightFoot -5.962788 -27.544764 7.345955
RightToeBase 12.381267 -0.000000 -0.000000
2075
root -5.282650 35.335942 -10.106226 -2.733359 3.456672 -2.827786
Spine -1.275357 3.973367 0.987585
Head -9.904488 -22.973379 -3.823516
LeftShoulder -15.819087 10.140035 -15.912685
LeftArm 20.874819 19.095441 -65.608682
LeftForeArm 14.133648 -0.000000 13.129829
LeftHand 2.530015 -0.000000 -9.593410
LeftHandThumb1 -26.253704 0.000000 33.147579
RightShoulder -6.196603 30.601180 -44.921258
RightArm 47.037927 61.588276 55.022823
RightForeArm 50.665256 -0.000000 14.280356
RightHand -5.603172 -0.000000 -48.977821
RightHandThumb1 -24.326973 -0.000000 -32.862282
LeftUpLeg 10.273585 10.494760 4.263729
LeftLeg -8.513504 -0.000000 0.000000
LeftFoot -12.584169 21.481536 -11.283287
LeftToeBase 21.116015 -0.000000 -0.000000
RightUpLeg 10.752941 -10.577982 -1.358226
RightLeg -5.011669 -0.000000 0.000000
RightFoot -5.973182 -27.544942 7.373191
RightToeBase 12.344007 -0.000000 -0.000000
2076
root -5.281467 35.335747 -10.103973 -2.726327 3.465975 -2.822002
Spine -1.268908 3.929986 0.991763
Head -9.976744 -22.953275 -3.800660
LeftShoulder -15.827997 10.132363 -15.917645
LeftArm 20.853488 19.088535 -65.614253
LeftForeArm 14.141852 -0.000000 13.134299
LeftHand 2.510429 -0.000000 -9.619408
LeftHandThumb1 -26.253704 0.000000 33.147579
RightShoulder -6.215508 30.596489 -44.917036
RightArm 47.212245 61.630889 55.223912
RightForeArm 50.620903 -0.000000 14.326038
RightHand -5.582472 -0.000000 -48.981197
RightHandThumb1 -24.326973 -0.000000 -32.862282
LeftUpLeg 10.275637 10.490708 4.254838
LeftLeg -8.529200 -0.000000 0.000000
LeftFoot -12.575773 21.474034 -11.297887
LeftToeBase 21.124463 -0.000000 -0.000000
RightUpLeg 10.756643 -10.596381 -1.366870
RightLeg -5.025186 -0.000000 0.000000
RightFoot -5.962454 -27.546884 7.374489
RightToeBase 12.352127 -0.000000 -0.000000
